<?xml version="1.0" encoding="utf-8"?>
<!-- Generator: Adobe Illustrator 24.0.1, SVG Export Plug-In . SVG Version: 6.00 Build 0)  -->
<svg version="1.1" id="Layer_1" xmlns="http://www.w3.org/2000/svg" xmlns:xlink="http://www.w3.org/1999/xlink" x="0px" y="0px"
	 viewBox="0 0 480 480" style="enable-background:new 0 0 480 480;" xml:space="preserve">
<style type="text/css">
	.st0{fill:#C8B08A;}
</style>
<path class="st0" d="M144,276h104v16H144V276z"/>
<path class="st0" d="M144,236h88v16h-88V236z"/>
<path class="st0" d="M456,60h-88V28c0-4.4-3.6-8-8-8H120c-4.4,0-8,3.6-8,8v32H24C10.7,60,0,70.7,0,84v240c0,13.3,10.7,24,24,24h176
	v48h-72c-4.4,0-8,3.6-8,8v40h-16v16h272v-16h-16v-40c0-4.4-3.6-8-8-8h-72v-48h176c13.3,0,24-10.7,24-24V84C480,70.7,469.3,60,456,60
	z M456,76c4.4,0,8,3.6,8,8v200h-96v-90.2l38.8-46.2c9.7-11.6,9.9-28.4,0.6-40.3c-9.4-11.9-25.8-15.6-39.4-8.8V76H456z M307.1,241.5
	l-24.5-20.6l72-85.8l24.5,20.6L307.1,241.5z M277,237.1l15.1,12.7l-18.1,6.3L277,237.1z M394.5,137.3l-5.1,6.1l-24.5-20.6l5.1-6.1
	c5.7-6.8,15.8-7.7,22.5-2C399.3,120.5,400.2,130.6,394.5,137.3z M128,36h224v77.3l-86.8,103.5c-0.9,1.1-1.5,2.4-1.8,3.9l-7.3,46.1
	c-0.4,2.8,0.6,5.6,2.8,7.4c2.2,1.8,5.1,2.3,7.7,1.4l44.1-15.2c1.4-0.5,2.6-1.3,3.5-2.4l37.8-45V308H128V36z M24,76h88v208H16V84
	C16,79.6,19.6,76,24,76z M344,444H136v-32h208V444z M264,396h-48v-48h48V396z M456,332H24c-4.4,0-8-3.6-8-8v-24h96v16
	c0,4.4,3.6,8,8,8h240c4.4,0,8-3.6,8-8v-16h96v24C464,328.4,460.4,332,456,332z"/>
<path class="st0" d="M432,308h16v16h-16V308z"/>
<path class="st0" d="M144,52h32v16h-32V52z"/>
<path class="st0" d="M192,52h136v16H192V52z"/>
<path class="st0" d="M144,92h184v16H144V92z"/>
<path class="st0" d="M144,132h16v16h-16V132z"/>
<path class="st0" d="M176,132h16v16h-16V132z"/>
<path class="st0" d="M208,132h88v16h-88V132z"/>
<path class="st0" d="M144,172h48v16h-48V172z"/>
<path class="st0" d="M208,172h56v16h-56V172z"/>
</svg>
