<svg xmlns="http://www.w3.org/2000/svg" width="734.838" height="150.728" viewBox="0 0 734.838 150.728">
  <g id="Group_260" data-name="Group 260" transform="translate(-65.081 -270.409)">
    <g id="Group_2298" data-name="Group 2298" transform="translate(65.674 270.917)">
      <path id="Path_3357" data-name="Path 3357" d="M1164.675,1864.764c23.886-9.06-3.532-112.44-37.029-122.17,68.827-4.158,160.352,145.076,42.318,123.093Z" transform="translate(-1064.279 -1742.257)" fill="#463312" stroke="#bfa177" stroke-width="1" fill-rule="evenodd"/>
      <path id="Path_3358" data-name="Path 3358" d="M1143.943,1758.441c-7.44,24.008,93.89,60.8,121.708,40.754-38.433,55.843-214.129,40.934-125.635-37.2Z" transform="translate(-1109.68 -1683.163)" fill="#463312" stroke="#bfa177" stroke-width="1" fill-rule="evenodd"/>
      <path id="Path_3359" data-name="Path 3359" d="M1247.552,1780.412c-81.623-26.914-133.086,49.19-130.482,79.762-17.406-72.147,46.612-167.506,123.676-87.132Z" transform="translate(-1114.189 -1742.456)" fill="#463312" stroke="#bfa177" stroke-width="1" fill-rule="evenodd"/>
    </g>
    <path id="Path_3360" data-name="Path 3360" d="M1186.486,1754.362a26.6,26.6,0,0,1-18.776,45.384h-10.658V1746.54h10.658A25.6,25.6,0,0,1,1186.486,1754.362Zm-7.516,30.05a15.972,15.972,0,0,0-11.26-27.243v31.915A15.389,15.389,0,0,0,1178.97,1784.412Z" transform="translate(-889.52 -1456.392)" fill="#463312"/>
    <path id="Path_3361" data-name="Path 3361" d="M1180.853,1792.155l-3.433,7.592H1166.07l22.775-50.734,1.116-2.472,1.159,2.505,22.8,50.7h-11.378l-3.4-7.624-.165-.363h-17.957Zm13.3-11.024-4.149-9.311-4.2,9.311Z" transform="translate(-856.073 -1456.392)" fill="#463312"/>
    <path id="Path_3362" data-name="Path 3362" d="M1214.1,1748.631a27.939,27.939,0,0,1,8.5,5.7l-7.521,7.521a15.534,15.534,0,0,0-11.288-4.681,15.957,15.957,0,1,0,11.288,27.224l7.521,7.526a27.621,27.621,0,0,1-8.5,5.731,26.6,26.6,0,1,1,0-49.019Z" transform="translate(-814.854 -1456.392)" fill="#463312"/>
    <path id="Path_3363" data-name="Path 3363" d="M1188.135,1752.469h26.6v9.306h-26.6Z" transform="translate(-774.226 -1434.399)" fill="#463312"/>
    <path id="Path_3364" data-name="Path 3364" d="M1207.613,1777.07a22.676,22.676,0,0,1-5.086-2.609,19.237,19.237,0,0,1-4.837-4.7,12.006,12.006,0,0,1-2.142-7.28,15.958,15.958,0,0,1,31.915,0h-10.634a5.31,5.31,0,0,0-10.62,0,4.8,4.8,0,0,0,2.288,4.309,14.215,14.215,0,0,0,3.485,1.8c.367.132,1.389.438,3.047.923a21.778,21.778,0,0,1,5.251,2.412,18.4,18.4,0,0,1,4.969,4.534,11.558,11.558,0,0,1,2.213,7.309,15.958,15.958,0,0,1-31.915,0h10.662a5.31,5.31,0,1,0,10.62,0c0-2.241-.89-3.7-2.685-4.361s-3.009-1.106-3.65-1.351C1210.16,1777.946,1209.2,1777.617,1207.613,1777.07Z" transform="translate(-746.733 -1456.392)" fill="#463312"/>
    <path id="Path_3365" data-name="Path 3365" d="M1249.126,1754.362a26.473,26.473,0,1,1-18.776-7.822A25.609,25.609,0,0,1,1249.126,1754.362Zm-30.04,7.507a15.855,15.855,0,1,0,11.265-4.7A15.425,15.425,0,0,0,1219.086,1761.869Z" transform="translate(-716.298 -1456.392)" fill="#463312"/>
    <path id="Path_3366" data-name="Path 3366" d="M1226.864,1746.54v42.544h21.253v10.662h-31.9V1746.54Z" transform="translate(-670.083 -1456.392)" fill="#463312"/>
    <path id="Path_3367" data-name="Path 3367" d="M1267.074,1746.54v31.911a21.284,21.284,0,0,1-42.568,0V1746.54h10.662v31.911a10.626,10.626,0,0,0,21.253,0V1746.54Z" transform="translate(-639.314 -1456.392)" fill="#463312"/>
    <path id="Path_3368" data-name="Path 3368" d="M1259.068,1746.54h13.294v10.629h-13.294v42.577h-10.657v-42.577h-13.3V1746.54h23.96Z" transform="translate(-599.991 -1456.392)" fill="#463312"/>
    <path id="Path_3369" data-name="Path 3369" d="M1244.643,1746.54H1255.3v53.206h-10.658Z" transform="translate(-564.619 -1456.392)" fill="#463312"/>
    <path id="Path_3370" data-name="Path 3370" d="M1293.979,1754.362a26.468,26.468,0,1,1-18.781-7.822A25.588,25.588,0,0,1,1293.979,1754.362Zm-30.051,7.507a15.872,15.872,0,1,0,11.27-4.7A15.462,15.462,0,0,0,1263.929,1761.869Z" transform="translate(-549.941 -1456.392)" fill="#463312"/>
    <path id="Path_3371" data-name="Path 3371" d="M1292.975,1775.616V1746.54h10.671v53.206l-31.93-29.118v29.118h-10.657V1746.54Z" transform="translate(-503.727 -1456.392)" fill="#463312"/>
    <path id="Path_3372" data-name="Path 3372" d="M1164.753,1781.256h3.5v4.205h-11.2v-4.205h3.495v-11.2h-3.495v-4.2h11.2v4.2h-3.5Z" transform="translate(-889.52 -1384.757)" fill="#dcbf82"/>
    <path id="Path_3373" data-name="Path 3373" d="M1168.781,1771.451v14.01h-4.205v-19.61h5.6l7,14v-14h4.206v19.61h-5.6Z" transform="translate(-861.614 -1384.757)" fill="#dcbf82"/>
    <path id="Path_3374" data-name="Path 3374" d="M1177.495,1772.855h9.8v4.2h-9.8v8.411h-4.206v-19.61h14v4.2h-9.8Z" transform="translate(-829.295 -1384.757)" fill="#dcbf82"/>
    <path id="Path_3375" data-name="Path 3375" d="M1198.148,1768.725a9.807,9.807,0,1,1-6.937-2.873A9.44,9.44,0,0,1,1198.148,1768.725Zm-6.937,1.328a5.6,5.6,0,1,0,3.965,1.639A5.4,5.4,0,0,0,1191.211,1770.053Z" transform="translate(-799.187 -1384.757)" fill="#dcbf82"/>
    <path id="Path_3376" data-name="Path 3376" d="M1194.913,1778.45v7.012h-4.2v-19.61h9.108a6.291,6.291,0,0,1,4.451,10.751,6.6,6.6,0,0,1-1.187.956l3.042,7.9h-4.488l-2.684-7.012Zm0-8.4v4.2h4.907a2.1,2.1,0,0,0,1.488-3.583,2.022,2.022,0,0,0-1.488-.617Z" transform="translate(-764.663 -1384.757)" fill="#dcbf82"/>
    <path id="Path_3377" data-name="Path 3377" d="M1203.334,1774.56v10.9h-4.205v-19.61h5.6l4.206,13.068,4.205-13.068h5.6v19.61h-4.205v-10.9l-3.495,10.9h-4.21Z" transform="translate(-733.445 -1384.757)" fill="#dcbf82"/>
    <path id="Path_3378" data-name="Path 3378" d="M1214.367,1782.655l-1.036,2.806h-4.893l7.695-19.61h4.205l7.7,19.61h-4.9l-1.031-2.806Zm6.192-4.206-2.327-6.3-2.331,6.3Z" transform="translate(-698.916 -1384.757)" fill="#dcbf82"/>
    <path id="Path_3379" data-name="Path 3379" d="M1226.852,1770.053v15.409h-4.205v-15.409h-4.9v-4.2h14v4.2Z" transform="translate(-664.396 -1384.757)" fill="#dcbf82"/>
    <path id="Path_3380" data-name="Path 3380" d="M1233.571,1781.256h3.494v4.205h-11.2v-4.205h3.5v-11.2h-3.5v-4.2h11.2v4.2h-3.494Z" transform="translate(-634.288 -1384.757)" fill="#dcbf82"/>
    <path id="Path_3381" data-name="Path 3381" d="M1237.586,1777.922v7.54h-4.2v-19.61h4.2v7.535l7.012-7.535h5.6l-9.1,9.8,9.1,9.805h-5.6Z" transform="translate(-606.379 -1384.757)" fill="#dcbf82"/>
    <path id="Path_3382" data-name="Path 3382" d="M1248.036,1782.655l-1.036,2.806h-4.9l7.695-19.61H1254l7.709,19.61h-4.9l-1.04-2.806Zm6.193-4.206-2.326-6.3-2.327,6.3Z" transform="translate(-574.059 -1384.757)" fill="#dcbf82"/>
  </g>
</svg>
