<?xml version="1.0" encoding="utf-8"?>
<!-- Generator: Adobe Illustrator 24.0.1, SVG Export Plug-In . SVG Version: 6.00 Build 0)  -->
<svg version="1.1" id="Layer_1" xmlns="http://www.w3.org/2000/svg" xmlns:xlink="http://www.w3.org/1999/xlink" x="0px" y="0px"
	 viewBox="0 0 512 512" style="enable-background:new 0 0 512 512;" xml:space="preserve">
<style type="text/css">
	.st0{fill:#C8B08A;}
</style>
<g id="setting">
	<path class="st0" d="M494.1,434.8c-1.5-1.8-3.7-2.8-6.1-2.8h-8V168c0-13.2-10.8-24-24-24h-8v-7.2c0-4.1-3-7.5-7-8l-19.2-2.4
		l11.9-15.3c2.5-3.2,2.1-7.7-0.7-10.6L411.4,79c-2.8-2.9-7.4-3.2-10.6-0.7l-15.3,11.9L383.2,71c-0.5-4-3.9-7-8-7h-30.4
		c-4.1,0-7.5,3-8,7l-2.4,19.2l-15.3-11.9c-3.2-2.5-7.7-2.2-10.6,0.7L287,100.6c-2.9,2.8-3.2,7.4-0.7,10.6l11.9,15.3l-19.2,2.4
		c-4,0.5-7,3.9-7,8v7.2H56c-13.2,0-24,10.8-24,24v264h-8c-2.3,0-4.6,1-6.1,2.8c-1.5,1.8-2.2,4.2-1.8,6.5l5.8,34.6
		c1.8,11.6,11.9,20.1,23.6,20.1h421c11.7,0,21.8-8.5,23.6-20.1l5.8-34.6C496.2,439,495.6,436.6,494.1,434.8L494.1,434.8z M288,143.8
		l19-2.4c3-0.4,5.6-2.5,6.6-5.4c0.7-1.9,1.5-3.8,2.4-5.7c1.4-2.7,1-6-0.9-8.4l-11.8-15.1l11.6-11.6L330,107c2.4,1.9,5.7,2.3,8.4,0.9
		c1.8-0.9,3.8-1.7,5.7-2.4c2.9-1,5-3.5,5.4-6.6l2.4-19h16.3l2.4,19c0.4,3,2.5,5.6,5.4,6.6c1.9,0.7,3.8,1.5,5.7,2.4
		c2.7,1.4,6,1,8.4-0.9l15.1-11.8l11.6,11.6L405,122c-1.9,2.4-2.3,5.7-0.9,8.4c0.9,1.8,1.7,3.8,2.4,5.7c1,2.9,3.5,5,6.6,5.4l19,2.4
		v16.3l-19,2.4c-3,0.4-5.6,2.5-6.6,5.4c-0.7,1.9-1.5,3.8-2.4,5.7c-1.4,2.7-1,6,0.9,8.4l11.8,15.1l-11.6,11.6L390,197
		c-2.4-1.9-5.7-2.3-8.4-0.9c-1.8,0.9-3.8,1.7-5.7,2.4c-2.9,1-5,3.5-5.4,6.6l-2.4,19h-16.3l-2.4-19c-0.4-3-2.5-5.6-5.4-6.6
		c-1.9-0.7-3.8-1.5-5.7-2.4c-2.7-1.4-6-1-8.4,0.9l-15.1,11.8l-11.6-11.6L315,182c1.9-2.4,2.3-5.7,0.9-8.4c-0.9-1.8-1.7-3.8-2.4-5.7
		c-1-2.9-3.5-5-6.6-5.4l-19-2.4V143.8z M48,168c0-4.4,3.6-8,8-8h216v7.2c0,4.1,3,7.5,7,8l19.2,2.4l-11.9,15.3
		c-2.5,3.2-2.1,7.7,0.7,10.6l21.5,21.5c2.8,2.9,7.4,3.2,10.6,0.7l15.3-11.9l2.4,19.2c0.5,4,3.9,7,8,7h30.4c4.1,0,7.5-3,8-7l2.4-19.2
		l15.3,11.9c3.2,2.5,7.7,2.2,10.6-0.7l21.5-21.5c2.9-2.8,3.2-7.4,0.7-10.6l-11.9-15.3l19.2-2.4c4-0.5,7-3.9,7-8V160h8
		c4.4,0,8,3.6,8,8v264H288c-4.4,0-8,3.6-8,8v8h-48v-8c0-4.4-3.6-8-8-8H48L48,168z M474.3,473.3c-0.6,3.9-3.9,6.7-7.8,6.7h-421
		c-3.9,0-7.2-2.8-7.8-6.7L33.4,448H216v8c0,4.4,3.6,8,8,8h64c4.4,0,8-3.6,8-8v-8h182.6L474.3,473.3z"/>
	<path class="st0" d="M233,288.8l-19.2-2.4l11.9-15.3c2.5-3.2,2.1-7.7-0.7-10.6L203.4,239c-2.8-2.9-7.4-3.2-10.6-0.7l-15.3,11.9
		l-2.4-19.2c-0.5-4-3.9-7-8-7h-30.4c-4.1,0-7.5,3-8,7l-2.4,19.2l-15.3-11.9c-3.2-2.5-7.7-2.2-10.6,0.7L79,260.6
		c-2.9,2.8-3.2,7.4-0.7,10.6l11.9,15.3L71,288.8c-4,0.5-7,3.9-7,8v30.4c0,4.1,3,7.5,7,8l19.2,2.4l-11.9,15.3
		c-2.5,3.2-2.1,7.7,0.7,10.6l21.5,21.5c2.8,2.9,7.4,3.2,10.6,0.7l15.3-11.9l2.4,19.2c0.5,4,3.9,7,8,7h30.4c4.1,0,7.5-3,8-7l2.4-19.2
		l15.3,11.9c3.2,2.5,7.7,2.1,10.6-0.7l21.5-21.5c2.9-2.8,3.2-7.4,0.7-10.6l-11.9-15.3l19.2-2.4c4-0.5,7-3.9,7-8v-30.4
		C240,292.7,237,289.3,233,288.8z M224,320.2l-19,2.4c-3,0.4-5.6,2.5-6.6,5.4c-0.7,1.9-1.5,3.8-2.4,5.7c-1.4,2.7-1,6,0.9,8.4
		l11.8,15.1l-11.6,11.6L182,357c-2.4-1.9-5.7-2.3-8.4-0.9c-1.8,0.9-3.8,1.7-5.7,2.4c-2.9,1-5,3.5-5.4,6.6l-2.4,19h-16.3l-2.4-19
		c-0.4-3-2.5-5.6-5.4-6.6c-1.9-0.7-3.8-1.5-5.7-2.4c-2.7-1.4-6-1-8.4,0.9l-15.1,11.8l-11.6-11.6L107,342c1.9-2.4,2.3-5.7,0.9-8.4
		c-0.9-1.8-1.7-3.8-2.4-5.7c-1-2.9-3.5-5-6.6-5.4l-19-2.4v-16.3l19-2.4c3-0.4,5.6-2.5,6.6-5.4c0.7-1.9,1.5-3.8,2.4-5.7
		c1.4-2.7,1-6-0.9-8.4l-11.8-15.1l11.6-11.6L122,267c2.4,1.9,5.7,2.3,8.4,0.9c1.8-0.9,3.8-1.7,5.7-2.4c2.9-1,5-3.5,5.4-6.6l2.4-19
		h16.3l2.4,19c0.4,3,2.5,5.6,5.4,6.6c1.9,0.7,3.8,1.5,5.7,2.4c2.7,1.4,6,1,8.4-0.9l15.1-11.8l11.6,11.6L197,282
		c-1.9,2.4-2.3,5.7-0.9,8.4c0.9,1.8,1.7,3.8,2.4,5.7c1,2.9,3.5,5,6.6,5.4l19,2.4V320.2z"/>
	<path class="st0" d="M152,272c-22.1,0-40,17.9-40,40s17.9,40,40,40s40-17.9,40-40C192,289.9,174.1,272,152,272z M152,336
		c-13.3,0-24-10.7-24-24s10.7-24,24-24s24,10.7,24,24S165.3,336,152,336z"/>
	<path class="st0" d="M360,192c22.1,0,40-17.9,40-40s-17.9-40-40-40s-40,17.9-40,40C320,174.1,337.9,192,360,192z M360,128
		c13.3,0,24,10.7,24,24s-10.7,24-24,24s-24-10.7-24-24S346.7,128,360,128z"/>
	<path class="st0" d="M144,176h16v32h-16V176z"/>
	<path class="st0" d="M160,32h192v16h16V24c0-4.4-3.6-8-8-8H152c-4.4,0-8,3.6-8,8v104h16V32z"/>
	<path class="st0" d="M368,312v-56h-16v48h-96v16h104C364.4,320,368,316.4,368,312z"/>
	<path class="st0" d="M352,368h96v16h-96V368z"/>
	<path class="st0" d="M288,368h48v16h-48V368z"/>
	<path class="st0" d="M288,400h160v16H288V400z"/>
	<path class="st0" d="M288,336h160v16H288V336z"/>
</g>
</svg>
