<?xml version="1.0" encoding="utf-8"?>
<!-- Generator: Adobe Illustrator 24.0.1, SVG Export Plug-In . SVG Version: 6.00 Build 0)  -->
<svg version="1.1" id="Layer_1" xmlns="http://www.w3.org/2000/svg" xmlns:xlink="http://www.w3.org/1999/xlink" x="0px" y="0px"
	 viewBox="0 0 512 512" style="enable-background:new 0 0 512 512;" xml:space="preserve">
<style type="text/css">
	.st0{fill:#C8B08A;}
</style>
<path class="st0" d="M379.9,44.7c0,5.2-4.2,9.4-9.4,9.4s-9.4-4.2-9.4-9.4s4.2-9.4,9.4-9.4S379.9,39.5,379.9,44.7z"/>
<path class="st0" d="M425,44.7c0,5.2-4.2,9.4-9.4,9.4s-9.4-4.2-9.4-9.4s4.2-9.4,9.4-9.4S425,39.5,425,44.7z"/>
<path class="st0" d="M470.1,44.7c0,5.2-4.2,9.4-9.4,9.4s-9.4-4.2-9.4-9.4s4.2-9.4,9.4-9.4S470.1,39.5,470.1,44.7z"/>
<path class="st0" d="M233.5,37.2H50.9c-4.1,0-7.5,3.4-7.5,7.5s3.4,7.5,7.5,7.5h182.7c4.1,0,7.5-3.4,7.5-7.5S237.7,37.2,233.5,37.2z"
	/>
<path class="st0" d="M504.5,174.8c-4.1,0-7.5,3.4-7.5,7.5v303.5c0,6.2-5,11.2-11.2,11.2H26.2C20,497,15,492,15,485.8v-65.3
	c0-4.1-3.4-7.5-7.5-7.5S0,416.4,0,420.5v65.3C0,500.3,11.8,512,26.2,512h459.6c14.4,0,26.2-11.8,26.2-26.2V182.3
	C512,178.2,508.6,174.8,504.5,174.8z"/>
<path class="st0" d="M485.8,0H26.2C11.8,0,0,11.7,0,26.2v364.4c0,4.1,3.4,7.5,7.5,7.5s7.5-3.4,7.5-7.5V89.4h482v62.7
	c0,4.1,3.4,7.5,7.5,7.5s7.5-3.4,7.5-7.5v-126C512,11.7,500.3,0,485.8,0z M15,74.4V26.2C15,20,20,15,26.2,15h459.6
	c6.2,0,11.2,5,11.2,11.2v48.2H15z"/>
<path class="st0" d="M124.9,281.2h-21.1c-3.2-9.8-12.4-16.9-23.2-16.9c-13.4,0-24.4,10.9-24.4,24.4S67.1,313,80.6,313
	c10.8,0,20-7.1,23.2-16.9h21.1c0.7,3.4,1.8,6.6,3.3,9.7c0,0,0,0,0,0c0,0.1,0.1,0.2,0.1,0.2l0.2,0.4c0,0,0,0,0,0
	c3.5,6.8,8.8,12.6,15.6,16.7c-0.7,2.9-1,5.8-1,8.8c0,0.2,0,0.3,0,0.5v0.1c0,0.1,0,0.2,0,0.4c0,0.1,0,0.1,0,0.2c0,0.1,0,0.2,0,0.3
	c0,0,0,0.1,0,0.1c0,0.1,0,0.3,0,0.4c0,0,0,0.1,0,0.1c0,0.5,0.1,1,0.1,1.5c0,0,0,0,0,0c0.4,4.1,1.4,8.1,3,11.7h-26.8
	c-4.1,0-7.5,3.4-7.5,7.5v44.2c-9.8,3.2-16.9,12.4-16.9,23.2c0,13.4,10.9,24.4,24.4,24.4s24.4-10.9,24.4-24.4
	c0-10.8-7.1-20-16.9-23.2v-36.7h30.4c5.2,4.5,11.5,7.8,18.5,9.5c-0.2,1.5-0.3,2.9-0.3,4.4c0,22.8,19.7,41.3,43.9,41.3
	c15.1,0,28.5-7.2,36.4-18.2c7.9,11,21.3,18.2,36.4,18.2c24.2,0,43.9-18.5,43.9-41.3c0-0.2,0-0.4,0-0.5c0,0,0-0.1,0-0.1
	c0-0.1,0-0.3,0-0.4c0,0,0-0.1,0-0.1c0-0.1,0-0.3,0-0.4c0,0,0-0.1,0-0.1c0-0.2,0-0.3,0-0.5c0,0,0,0,0,0c0-0.7-0.1-1.4-0.2-2.2
	c7-1.7,13.3-5,18.5-9.5h30.4v36.7c-9.8,3.2-16.9,12.4-16.9,23.2c0,13.4,10.9,24.4,24.4,24.4s24.4-10.9,24.4-24.4
	c0-10.8-7.1-20-16.9-23.2V355c0-4.1-3.4-7.5-7.5-7.5h-26.8c2.1-4.8,3.2-10,3.2-15.4c0-3-0.3-5.9-1-8.8c10.1-6.2,17.1-16,19.3-27.1
	h21.1c3.2,9.8,12.4,16.9,23.2,16.9c13.4,0,24.4-10.9,24.4-24.4s-10.9-24.4-24.4-24.4c-10.8,0-20.1,7.1-23.2,16.9h-21.1
	c-0.7-3.5-1.9-6.9-3.4-10c-0.1-0.1-0.1-0.2-0.2-0.3c0,0,0-0.1,0-0.1c-3.5-6.7-8.8-12.5-15.6-16.7c0.7-2.9,1-5.8,1-8.8
	c0-5.5-1.1-10.7-3.2-15.4h26.8c4.1,0,7.5-3.4,7.5-7.5v-44.2c9.8-3.2,16.9-12.4,16.9-23.2c0-13.4-10.9-24.4-24.4-24.4
	s-24.4,10.9-24.4,24.4c0,10.8,7.1,20,16.9,23.2v36.7h-30.4c-5.2-4.5-11.5-7.8-18.5-9.5c0.2-1.5,0.3-2.9,0.3-4.4
	c0-22.8-19.7-41.3-43.9-41.3c-15.1,0-28.5,7.2-36.4,18.2c-7.9-11-21.3-18.2-36.4-18.2c-24.2,0-43.9,18.5-43.9,41.3
	c0,0.2,0,0.4,0,0.5v0.1c0,0.1,0,0.3,0,0.4c0,0,0,0.1,0,0.1c0,0.1,0,0.3,0,0.4c0,0,0,0.1,0,0.1c0,0.2,0,0.3,0,0.5v0.1
	c0,0.2,0,0.3,0,0.5c0,0,0,0,0,0c0,0.6,0.1,1.1,0.1,1.6c-7,1.7-13.3,5-18.5,9.5h-30.4v-36.7c9.8-3.2,16.9-12.4,16.9-23.2
	c0-13.4-10.9-24.4-24.4-24.4s-24.4,10.9-24.4,24.4c0,10.8,7.1,20,16.9,23.2v44.2c0,4.1,3.4,7.5,7.5,7.5h26.8
	c-2.1,4.8-3.2,10-3.2,15.4c0,3,0.3,5.9,1,8.8C134.1,260.2,127.1,270.1,124.9,281.2z M119.6,431.8c-5.2,0-9.4-4.2-9.4-9.4
	c0-5.2,4.2-9.4,9.4-9.4c5.2,0,9.4,4.2,9.4,9.4C128.9,427.6,124.7,431.8,119.6,431.8z M392.4,431.8c-5.2,0-9.4-4.2-9.4-9.4
	c0-5.2,4.2-9.4,9.4-9.4c5.2,0,9.4,4.2,9.4,9.4C401.8,427.6,397.6,431.8,392.4,431.8z M392.4,145.5c5.2,0,9.4,4.2,9.4,9.4
	c0,5.2-4.2,9.4-9.4,9.4c-5.2,0-9.4-4.2-9.4-9.4C383.1,149.7,387.3,145.5,392.4,145.5z M119.6,145.5c5.2,0,9.4,4.2,9.4,9.4
	c0,5.2-4.2,9.4-9.4,9.4c-5.2,0-9.4-4.2-9.4-9.4C110.2,149.7,114.4,145.5,119.6,145.5z M80.6,298c-5.2,0-9.4-4.2-9.4-9.4
	c0-5.2,4.2-9.4,9.4-9.4c5.2,0,9.4,4.2,9.4,9.4C89.9,293.8,85.7,298,80.6,298z M431.4,279.3c5.2,0,9.4,4.2,9.4,9.4
	c0,5.2-4.2,9.4-9.4,9.4c-5.2,0-9.4-4.2-9.4-9.4C422.1,283.5,426.3,279.3,431.4,279.3z M292.4,174.6c15.9,0,28.9,11.8,28.9,26.3
	c0,1.1-0.1,2.2-0.2,3.2c-10.2,0.8-19.7,4.9-27,11.7c-3,2.8-3.2,7.6-0.4,10.6c1.5,1.6,3.5,2.4,5.5,2.4c1.8,0,3.7-0.7,5.1-2
	c5.5-5.1,12.8-7.9,20.6-7.9c0.5,0,1,0,1.5,0c0.1,0,0.1,0,0.2,0c7.4,0.4,14,3.3,18.9,7.7c0.4,0.6,1,1.1,1.6,1.6
	c4.2,4.6,6.8,10.5,6.8,16.9c0,1.1-0.1,2.1-0.2,3.1c-3.1-0.7-6.4-1-9.7-1c-4.1,0-7.5,3.4-7.5,7.5c0,4.1,3.4,7.5,7.5,7.5
	c4.2,0,8.2,0.8,11.8,2.3c0.1,0,0.1,0.1,0.2,0.1c9.9,4.1,16.4,12.9,16.9,22.7c0,0.1,0,0.3,0,0.4c0,0,0,0.1,0,0.1s0,0.1,0,0.1
	c0,0.1,0,0.1,0,0.2v0.1c0,0.1,0,0.2,0,0.3c0,10.3-6.7,19.7-17,23.9c-1.9,0.8-3.3,2.2-4.1,4.1c-0.8,1.9-0.7,3.9,0.1,5.8
	c1.3,3.1,2,6.3,2,9.6c0,12.4-9.5,22.9-22.3,25.6c-7.3-13.4-22.1-22.5-39.1-22.5c-4.1,0-7.5,3.4-7.5,7.5c0,4.1,3.4,7.5,7.5,7.5
	c12.7,0,23.6,7.5,27.4,18c0,0.1,0,0.1,0.1,0.2c0.8,2.3,1.3,4.8,1.4,7.2c0,0.1,0,0.1,0,0.2c0,0,0,0.1,0,0.1c0,0.1,0,0.1,0,0.2v0.1
	c0,0.1,0,0.2,0,0.3c0,14.5-13,26.3-28.9,26.3s-28.9-11.8-28.9-26.3V200.9C263.5,186.4,276.5,174.6,292.4,174.6z M156.1,264.7
	c1.9-0.8,3.3-2.3,4.1-4.1c0.8-1.9,0.7-3.9-0.1-5.8c-1.3-3.1-2-6.3-2-9.6c0-6.7,2.7-12.8,7.3-17.4c0.2-0.2,0.3-0.3,0.5-0.5
	c3.8-3.8,8.9-6.5,14.6-7.7c7.3,13.4,22.1,22.5,39.1,22.5c4.1,0,7.5-3.4,7.5-7.5c0-4.1-3.4-7.5-7.5-7.5c-12.7,0-23.6-7.5-27.4-18
	c0-0.1,0-0.1-0.1-0.2c-0.8-2.3-1.3-4.8-1.4-7.2c0-0.1,0-0.1,0-0.2c0,0,0-0.1,0-0.1c0-0.1,0-0.1,0-0.2c0,0,0-0.1,0-0.1
	c0-0.1,0-0.2,0-0.3c0-14.5,13-26.3,28.9-26.3s28.9,11.8,28.9,26.3v175.5c0,14.5-13,26.3-28.9,26.3s-28.9-11.8-28.9-26.3
	c0-1.1,0.1-2.2,0.2-3.2c10.2-0.8,19.7-4.9,27-11.7c3-2.8,3.2-7.6,0.4-10.6s-7.6-3.2-10.6-0.4c-5.5,5.1-12.8,7.9-20.6,7.9
	c-0.5,0-1,0-1.5,0c-0.1,0-0.1,0-0.2,0c-1.4-0.1-2.8-0.2-4.2-0.5c-11.7-2.2-20.9-10.9-22.7-21.7c0,0,0,0,0,0c0-0.1,0-0.2,0-0.3
	c0,0,0,0,0-0.1c0-0.1,0-0.2,0-0.3c0,0,0,0,0-0.1c0-0.1,0-0.2,0-0.3c0,0,0-0.1,0-0.1c0-0.1,0-0.2,0-0.3c0,0,0-0.1,0-0.1
	c0-0.1,0-0.2,0-0.2c0,0,0-0.1,0-0.1c0-0.1,0-0.1,0-0.2c0,0,0-0.1,0-0.1c0-0.1,0-0.1,0-0.2c0,0,0-0.1,0-0.1c0-0.1,0-0.1,0-0.2
	c0,0,0-0.1,0-0.1c0-0.1,0-0.1,0-0.2c0,0,0-0.1,0-0.1c0-0.1,0-0.1,0-0.2c0,0,0-0.1,0-0.1c0-0.1,0-0.2,0-0.2c0,0,0-0.1,0-0.1
	c0-0.1,0-0.2,0-0.3c0-1.1,0.1-2.1,0.2-3.1c3.1,0.7,6.4,1,9.7,1c4.1,0,7.5-3.4,7.5-7.5c0-4.1-3.4-7.5-7.5-7.5
	c-4.2,0-8.2-0.8-11.8-2.3c-0.1,0-0.1-0.1-0.2-0.1c-9.9-4.1-16.4-12.9-16.9-22.7c0-0.1,0-0.3,0-0.4c0,0,0-0.1,0-0.1c0,0,0-0.1,0-0.1
	c0-0.1,0-0.1,0-0.2c0,0,0-0.1,0-0.1c0-0.1,0-0.2,0-0.3C139.2,278.4,145.8,269,156.1,264.7z"/>
</svg>
