<?xml version="1.0" encoding="utf-8"?>
<!-- Generator: Adobe Illustrator 24.0.1, SVG Export Plug-In . SVG Version: 6.00 Build 0)  -->
<svg version="1.1" id="Layer_1" xmlns="http://www.w3.org/2000/svg" xmlns:xlink="http://www.w3.org/1999/xlink" x="0px" y="0px"
	 viewBox="0 0 566.9 283.5" style="enable-background:new 0 0 566.9 283.5;" xml:space="preserve">
<style type="text/css">
	.st0{fill-rule:evenodd;clip-rule:evenodd;fill:#574319;stroke:#C8B18B;}
	.st1{fill:#574319;}
	.st2{fill:#DBBC77;}
</style>
<g>
	<path class="st0" d="M97.4,176c17.1-6.5-2.5-80.7-26.6-87.7c49.4-3,115.1,104.1,30.4,88.3L97.4,176z"/>
	<path class="st0" d="M50,142.1c-5.3,17.2,67.4,43.6,87.3,29.2c-27.6,40.1-153.6,29.4-90.1-26.7L50,142.1z"/>
	<path class="st0" d="M121.1,115.3C62.5,96,25.6,150.6,27.4,172.5C15,120.8,60.9,52.4,116.2,110L121.1,115.3z"/>
</g>
<path class="st1" d="M191.3,107.5c3.8,3.7,5.6,8.2,5.6,13.5s-1.9,9.7-5.6,13.5c-3.7,3.7-8.2,5.6-13.5,5.6h-7.6v-38.2h7.6
	C183.1,101.9,187.6,103.7,191.3,107.5z M185.9,129.1c2.2-2.2,3.4-4.9,3.4-8.1c0-3.1-1.1-5.8-3.4-8.1c-2.3-2.3-4.9-3.4-8.1-3.4v22.9
	C181,132.4,183.7,131.3,185.9,129.1z"/>
<path class="st1" d="M211.3,134.6l-2.5,5.4h-1.3h-0.3h-4.9h-1.6l16.3-36.4l0.8-1.8l0.8,1.8L235,140h-1.6h-4.9h-0.3h-1.3l-2.4-5.5
	l-0.1-0.3h-12.9L211.3,134.6z M220.8,126.7l-3-6.7l-3,6.7H220.8z"/>
<path class="st1" d="M264.7,103.4c2.3,1,4.3,2.4,6.1,4.1l-5.4,5.4c-2.3-2.2-5-3.4-8.1-3.4c-3.2,0-5.9,1.1-8.1,3.4
	c-2.2,2.3-3.4,4.9-3.4,8.1s1.1,5.9,3.4,8.1c2.2,2.2,4.9,3.4,8.1,3.4c3.1,0,5.9-1.1,8.1-3.4l5.4,5.4c-1.8,1.7-3.8,3.1-6.1,4.1
	s-4.8,1.5-7.4,1.5c-5.3,0-9.8-1.9-13.5-5.6c-3.7-3.7-5.6-8.2-5.6-13.5c0-5.2,1.9-9.7,5.6-13.5c3.7-3.7,8.2-5.6,13.5-5.6
	C259.9,101.9,262.4,102.4,264.7,103.4z"/>
<path class="st1" d="M275.2,121.9h19.1v6.7h-19.1V121.9z"/>
<path class="st1" d="M308.9,123.8c-1.1-0.4-2.4-1-3.6-1.9c-1.3-0.8-2.4-2-3.5-3.4c-1-1.4-1.5-3.1-1.5-5.2c0-3.1,1.1-5.8,3.4-8.1
	c2.2-2.2,4.9-3.4,8.1-3.4c3.1,0,5.8,1.1,8.1,3.4c2.2,2.2,3.4,4.9,3.4,8.1h-7.6c0-1-0.4-1.9-1.1-2.7s-1.6-1.1-2.7-1.1s-2,0.4-2.7,1.1
	c-0.8,0.8-1.1,1.7-1.1,2.7c0,1.4,0.5,2.4,1.6,3.1s1.9,1.1,2.5,1.3c0.3,0.1,1,0.3,2.2,0.7c1.2,0.3,2.5,0.9,3.8,1.7
	c1.3,0.8,2.5,1.9,3.6,3.3s1.6,3.1,1.6,5.2c0,3.2-1.1,5.9-3.4,8.1c-2.2,2.2-4.9,3.4-8.1,3.4s-5.9-1.1-8.1-3.4
	c-2.2-2.2-3.4-4.9-3.4-8.1h7.6c0,1.1,0.4,2,1.1,2.7s1.6,1.1,2.7,1.1c1,0,1.9-0.4,2.7-1.1c0.8-0.7,1.1-1.6,1.1-2.7
	c0-1.6-0.6-2.7-1.9-3.1c-1.3-0.5-2.2-0.8-2.6-1C310.8,124.4,310.1,124.2,308.9,123.8z"/>
<path class="st1" d="M360.5,107.5c3.7,3.7,5.6,8.2,5.6,13.5s-1.9,9.7-5.6,13.5c-3.7,3.7-8.2,5.6-13.5,5.6s-9.8-1.9-13.5-5.6
	c-3.7-3.7-5.6-8.2-5.6-13.5c0-5.2,1.9-9.7,5.6-13.5c3.7-3.7,8.2-5.6,13.5-5.6S356.8,103.7,360.5,107.5z M339,112.9
	c-2.2,2.3-3.4,4.9-3.4,8.1s1.1,5.9,3.4,8.1c2.3,2.2,4.9,3.4,8.1,3.4c3.1,0,5.8-1.1,8.1-3.4c2.3-2.2,3.4-4.9,3.4-8.1
	c0-3.1-1.1-5.8-3.4-8.1c-2.2-2.3-4.9-3.4-8.1-3.4C343.9,109.5,341.2,110.6,339,112.9z"/>
<path class="st1" d="M377.7,101.9v30.5H393v7.6h-22.9v-38.2C370.1,101.9,377.7,101.9,377.7,101.9z"/>
<path class="st1" d="M428.7,101.9v15.3v7.6c0,4.2-1.5,7.8-4.5,10.8s-6.6,4.5-10.8,4.5c-4.2,0-7.8-1.5-10.8-4.5s-4.5-6.6-4.5-10.8
	v-7.6v-15.3h7.6v15.3v6.8v0.8c0,2.1,0.8,3.9,2.2,5.4s3.3,2.2,5.4,2.2s3.9-0.8,5.4-2.2c1.5-1.5,2.3-3.3,2.3-5.4V124v-6.8v-15.3
	C421,101.9,428.7,101.9,428.7,101.9z"/>
<path class="st1" d="M451.1,101.9h9.5v7.6h-9.5v30.6h-7.6v-30.6H434v-7.6h9.5C443.5,101.9,451.1,101.9,451.1,101.9z"/>
<path class="st1" d="M466.2,101.9h7.6V140h-7.6V101.9z"/>
<path class="st1" d="M512.1,107.5c3.7,3.7,5.6,8.2,5.6,13.5s-1.9,9.7-5.6,13.5c-3.7,3.7-8.2,5.6-13.5,5.6s-9.8-1.9-13.5-5.6
	c-3.7-3.7-5.6-8.2-5.6-13.5c0-5.2,1.9-9.7,5.6-13.5c3.7-3.7,8.2-5.6,13.5-5.6C503.9,101.9,508.4,103.7,512.1,107.5z M490.5,112.9
	c-2.2,2.3-3.4,4.9-3.4,8.1s1.1,5.9,3.4,8.1c2.3,2.2,4.9,3.4,8.1,3.4c3.1,0,5.8-1.1,8.1-3.4c2.2-2.2,3.4-4.9,3.4-8.1
	c0-3.1-1.1-5.8-3.4-8.1c-2.3-2.3-5-3.4-8.1-3.4C495.5,109.5,492.8,110.6,490.5,112.9z"/>
<path class="st1" d="M544.5,122.7v-20.9h7.7V140l-22.9-20.9V140h-7.7v-38.2L544.5,122.7z"/>
<path class="st2" d="M175.7,178.2h2.5v3h-8v-3h2.5v-8h-2.5v-3h8v3h-2.5V178.2z"/>
<path class="st2" d="M198.6,171.1v10.1h-3v-14.1h4l5,10v-10h3v14.1h-4L198.6,171.1z"/>
<path class="st2" d="M228.1,172.1h7v3h-7v6h-3V167h10v3h-7V172.1L228.1,172.1z"/>
<path class="st2" d="M264.5,169.2c1.4,1.4,2.1,3,2.1,5c0,1.9-0.7,3.6-2.1,5s-3,2.1-5,2.1s-3.6-0.7-5-2.1c-1.4-1.4-2.1-3-2.1-5
	c0-1.9,0.7-3.6,2.1-5s3-2.1,5-2.1C261.5,167.1,263.1,167.8,264.5,169.2z M259.5,170.1c-1.1,0-2.1,0.4-2.8,1.2
	c-0.8,0.8-1.2,1.7-1.2,2.8s0.4,2.1,1.2,2.8c0.8,0.8,1.7,1.2,2.8,1.2c1.1,0,2.1-0.4,2.8-1.2c0.8-0.8,1.2-1.7,1.2-2.8
	s-0.4-2.1-1.2-2.8C261.6,170.5,260.6,170.1,259.5,170.1z"/>
<path class="st2" d="M287,176.2v5h-3v-14.1h6.5c1.3,0,2.3,0.4,3.2,1.3c0.9,0.9,1.3,1.9,1.3,3.2s-0.4,2.3-1.3,3.2
	c-0.3,0.3-0.5,0.5-0.9,0.7l2.2,5.7h-3.2l-1.9-5L287,176.2L287,176.2z M287,170.1v3h3.5c0.4,0,0.8-0.1,1.1-0.4
	c0.3-0.3,0.4-0.6,0.4-1.1c0-0.4-0.1-0.8-0.4-1.1s-0.6-0.4-1.1-0.4H287L287,170.1z"/>
<path class="st2" d="M315.4,173.4v7.8h-3v-14.1h4l3,9.4l3-9.4h4v14.1h-3v-7.8l-2.5,7.8h-3L315.4,173.4z"/>
<path class="st2" d="M348.1,179.2l-0.8,2h-3.5l5.5-14.1h3l5.5,14.1h-3.5l-0.7-2H348.1z M352.5,176.2l-1.7-4.5l-1.7,4.5H352.5z"/>
<path class="st2" d="M381.8,170.1v11.1h-3v-11.1h-3.5v-3h10v3H381.8z"/>
<path class="st2" d="M408.2,178.2h2.5v3h-8v-3h2.5v-8h-2.5v-3h8v3h-2.5V178.2z"/>
<path class="st2" d="M431.1,175.8v5.4h-3v-14.1h3v5.4l5-5.4h4l-6.5,7l6.5,7h-4L431.1,175.8z"/>
<path class="st2" d="M461.8,179.2l-0.8,2h-3.5l5.5-14.1h3l5.5,14.1H468l-0.8-2H461.8z M466.3,176.2l-1.7-4.5l-1.7,4.5H466.3z"/>
</svg>
