<?xml version="1.0" encoding="UTF-8"?>
<!DOCTYPE svg PUBLIC "-//W3C//DTD SVG 1.1//EN" "http://www.w3.org/Graphics/SVG/1.1/DTD/svg11.dtd">
<!-- Creator: CorelDRAW 2018 -->
<svg xmlns="http://www.w3.org/2000/svg" xml:space="preserve" width="11.6929in" height="8.26772in" version="1.1" style="shape-rendering:geometricPrecision; text-rendering:geometricPrecision; image-rendering:optimizeQuality; fill-rule:evenodd; clip-rule:evenodd"
viewBox="0 0 11692.91 8267.72"
 xmlns:xlink="http://www.w3.org/1999/xlink">
 <defs>
  <style type="text/css">
   <![CDATA[
    .str0 {stroke:#C8B18B;stroke-width:14.58;stroke-miterlimit:2.61313}
    .fil0 {fill:#574319}
    .fil1 {fill:#F7EED4}
   ]]>
  </style>
 </defs>
 <g id="Layer_x0020_1">
  <metadata id="CorelCorpID_0Corel-Layer"/>
  <g id="_669109928">
   <g>
    <g>
     <path class="fil0 str0" d="M1841.42 5579.27c350.07,-133.06 -51.18,-1652.08 -544.55,-1795.38 1011.31,-61.41 2356.31,2131.12 622.34,1807.67l-77.79 -12.29z"/>
     <path class="fil0 str0" d="M871.06 4885.28c-108.5,352.11 1379.8,892.57 1787.19,597.78 -565.02,820.92 -3144.47,601.87 -1844.52,-546.6l57.33 -51.18z"/>
     <path class="fil0 str0" d="M2326.6 4336.63c-1199.65,-395.11 -1955.06,722.66 -1918.21,1170.99 -253.85,-1058.39 685.81,-2458.67 1817.9,-1279.49l100.31 108.5z"/>
    </g>
    <g>
     <path class="fil0" d="M3763.72 4176.95c77.8,75.74 114.64,167.87 114.64,276.37 0,108.5 -38.89,198.57 -114.64,276.37 -75.74,75.74 -167.87,114.64 -276.37,114.64l-155.58 0 0 -782.02 155.58 -0c108.5,0 200.63,36.85 276.37,114.65zm-110.55 442.19c45.04,-45.04 69.6,-100.31 69.6,-165.82 0,-63.47 -22.52,-118.74 -69.6,-165.82 -47.09,-47.08 -100.31,-69.6 -165.82,-69.6l0 468.8c65.51,-0 120.79,-22.52 165.82,-67.56z"/>
     <path class="fil0" d="M4173.16 4731.74l-51.18 110.55 -26.61 -0 -6.14 0 -100.31 0 -32.76 0 333.69 -745.18 16.37 -36.85 16.37 36.85 335.74 745.18 -32.75 0 -100.31 0 -6.14 0 -26.61 0 -49.13 -112.6 -2.05 -6.14 -264.09 0 -4.09 8.19zm194.48 -161.73l-61.41 -137.16 -61.42 137.16 122.83 0z"/>
     <path class="fil0" d="M5266.36 4093.02c47.09,20.47 88.03,49.13 124.88,83.94l-110.55 110.55c-47.08,-45.04 -102.36,-69.6 -165.82,-69.6 -65.51,0 -120.79,22.52 -165.82,69.6 -45.04,47.09 -69.61,100.31 -69.61,165.82 0,65.51 22.52,120.78 69.61,165.82 45.04,45.04 100.31,69.61 165.82,69.61 63.46,0 120.78,-22.52 165.82,-69.61l110.55 110.55c-36.85,34.8 -77.8,63.46 -124.88,83.93 -47.08,20.47 -98.26,30.71 -151.49,30.71 -108.5,0 -200.63,-38.89 -276.37,-114.64 -75.75,-75.74 -114.64,-167.87 -114.64,-276.37 0,-106.46 38.89,-198.57 114.64,-276.37 75.74,-75.74 167.87,-114.64 276.37,-114.64 53.22,-0.01 104.41,10.23 151.49,30.7z"/>
     <polygon class="fil0" points="5481.31,4471.75 5872.33,4471.75 5872.33,4608.91 5481.31,4608.91 "/>
     <path class="fil0" d="M6169.17 4510.64c-22.52,-8.19 -49.13,-20.47 -73.7,-38.89 -26.62,-16.38 -49.13,-40.94 -71.65,-69.61 -20.47,-28.66 -30.71,-63.46 -30.71,-106.46 0,-63.46 22.52,-118.73 69.61,-165.82 45.04,-45.04 100.31,-69.61 165.82,-69.61 63.46,0 118.74,22.52 165.82,69.61 45.04,45.04 69.61,100.31 69.61,165.82l-155.58 0c0,-20.47 -8.19,-38.89 -22.52,-55.28 -14.33,-16.37 -32.75,-22.52 -55.27,-22.52 -22.52,0 -40.95,8.19 -55.28,22.52 -16.38,16.38 -22.52,34.8 -22.52,55.28 0,28.66 10.24,49.13 32.76,63.46 22.52,14.33 38.9,22.52 51.18,26.62 6.14,2.04 20.47,6.14 45.04,14.33 24.57,6.14 51.18,18.43 77.8,34.8 26.62,16.37 51.18,38.89 73.7,67.56 22.52,28.66 32.76,63.46 32.76,106.45 0,65.51 -22.52,120.79 -69.61,165.82 -45.04,45.04 -100.31,69.6 -165.82,69.6 -65.51,0 -120.79,-22.52 -165.82,-69.6 -45.04,-45.04 -69.61,-100.31 -69.61,-165.82l155.58 0c0,22.52 8.19,40.94 22.52,55.28 14.33,14.33 32.75,22.52 55.28,22.52 20.47,0 38.89,-8.19 55.27,-22.52 16.38,-14.33 22.52,-32.75 22.52,-55.28 0,-32.75 -12.29,-55.28 -38.9,-63.46 -26.61,-10.24 -45.04,-16.37 -53.22,-20.47 -6.15,-2.05 -20.48,-6.14 -45.05,-14.33z"/>
     <path class="fil0" d="M7225.52 4176.95c75.74,75.74 114.64,167.87 114.64,276.37 0,108.5 -38.89,198.57 -114.64,276.37 -75.74,75.74 -167.87,114.64 -276.37,114.64 -108.5,0 -200.63,-38.89 -276.37,-114.64 -75.74,-75.74 -114.64,-167.87 -114.64,-276.37 0,-106.46 38.89,-198.57 114.64,-276.37 75.75,-75.75 167.87,-114.64 276.37,-114.64 108.5,-0 200.63,36.84 276.37,114.64zm-440.15 110.54c-45.04,47.09 -69.61,100.31 -69.61,165.82 0,65.51 22.52,120.79 69.61,165.82 47.08,45.04 100.31,69.6 165.82,69.6 63.46,0 118.74,-22.52 165.82,-69.6 47.09,-45.04 69.61,-100.31 69.61,-165.82 0,-63.46 -22.52,-118.73 -69.61,-165.82 -45.04,-47.09 -100.31,-69.61 -165.82,-69.61 -65.51,0 -120.78,22.52 -165.82,69.61z"/>
     <path class="fil0" d="M7577.63 4062.31l0 624.39 313.22 0 0 155.59 -468.81 0 0 -782.02c0,2.05 155.59,2.05 155.59,2.05z"/>
     <path class="fil0" d="M8621.69 4062.31l0 313.22 0 155.58c0,85.98 -30.71,159.68 -92.13,221.1 -61.41,61.41 -135.11,92.12 -221.09,92.12 -85.98,0 -159.68,-30.71 -221.09,-92.12 -61.42,-61.42 -92.13,-135.12 -92.13,-221.1l0 -155.58 0 -313.22 155.59 0 0 313.22 0 139.21 0 16.37c0,42.99 16.37,79.84 45.04,110.55 28.66,30.71 67.56,45.04 110.55,45.04 43,0 79.84,-16.37 110.55,-45.04 30.71,-30.71 47.08,-67.56 47.08,-110.55l-0.01 -16.37 0 -139.21 0 -313.22c0,0 157.63,0 157.63,0z"/>
     <path class="fil0" d="M9080.26 4062.31l194.48 0 0 155.58 -194.48 0 0 626.44 -155.59 0 0 -626.43 -194.48 -0.01 0 -155.58 194.48 0c0,0 155.59,0 155.59,0z"/>
     <polygon class="fil0" points="9389.39,4062.31 9544.97,4062.31 9544.97,4842.28 9389.39,4842.28 "/>
     <path class="fil0" d="M10329.04 4176.95c75.74,75.74 114.64,167.87 114.64,276.37 0,108.5 -38.89,198.57 -114.64,276.37 -75.75,75.74 -167.87,114.64 -276.37,114.64 -108.5,0 -200.63,-38.89 -276.37,-114.64 -75.74,-75.74 -114.64,-167.87 -114.64,-276.37 0,-106.46 38.89,-198.57 114.64,-276.37 75.75,-75.75 167.87,-114.64 276.37,-114.64 108.5,-0 200.62,36.84 276.37,114.64zm-442.19 110.54c-45.04,47.09 -69.61,100.31 -69.61,165.82 0,65.51 22.52,120.79 69.61,165.82 47.09,45.04 100.31,69.6 165.82,69.6 63.46,0 118.73,-22.52 165.82,-69.6 45.04,-45.04 69.61,-100.31 69.61,-165.82 0,-63.46 -22.52,-118.73 -69.61,-165.82 -47.09,-47.09 -102.36,-69.61 -165.82,-69.61 -63.46,0 -118.74,22.52 -165.82,69.61z"/>
     <polygon class="fil0" points="10992.33,4488.12 10992.33,4060.26 11149.96,4060.26 11149.96,4842.28 10681.16,4414.42 10681.16,4842.28 10523.53,4842.28 10523.53,4060.26 "/>
     <polygon class="fil1" points="3444.37,5624.31 3495.55,5624.31 3495.55,5685.72 3331.77,5685.72 3331.77,5624.31 3382.95,5624.31 3382.95,5460.54 3331.77,5460.54 3331.77,5399.12 3495.55,5399.12 3495.55,5460.54 3444.37,5460.54 "/>
     <polygon class="fil1" points="3913.17,5478.96 3913.17,5685.72 3851.76,5685.72 3851.76,5397.07 3933.64,5397.07 4036,5601.79 4036,5397.07 4097.42,5397.07 4097.42,5685.72 4015.53,5685.72 "/>
     <polygon class="fil1" points="4517.09,5499.43 4660.39,5499.43 4660.39,5560.84 4517.09,5560.84 4517.09,5683.67 4455.67,5683.67 4455.67,5395.02 4660.39,5395.02 4660.39,5456.44 4517.09,5456.44 4517.09,5499.43 "/>
     <path class="fil1" d="M5262.26 5440.06c28.66,28.66 42.99,61.42 42.99,102.36 0,38.89 -14.33,73.7 -42.99,102.36 -28.66,28.66 -61.41,42.99 -102.36,42.99 -40.94,0 -73.7,-14.33 -102.36,-42.99 -28.66,-28.66 -42.99,-61.41 -42.99,-102.36 0,-38.9 14.33,-73.7 42.99,-102.36 28.66,-28.66 61.42,-42.99 102.36,-42.99 40.94,-0.01 73.7,14.32 102.36,42.99zm-102.36 18.43c-22.52,0 -42.99,8.19 -57.32,24.57 -16.37,16.37 -24.56,34.8 -24.56,57.32 0,22.52 8.19,42.99 24.56,57.32 16.38,16.38 34.8,24.57 57.32,24.57 22.52,0 42.99,-8.19 57.32,-24.57 16.37,-16.37 24.57,-34.8 24.57,-57.32 0,-22.52 -8.19,-42.99 -24.57,-57.32 -14.33,-16.38 -34.8,-24.57 -57.32,-24.57z"/>
     <path class="fil1" d="M5722.88 5583.37l0 102.36 -61.42 0 0 -288.65 133.07 -0.01c26.61,0 47.09,8.19 65.51,26.62 18.43,18.43 26.62,38.89 26.62,65.51 0,26.62 -8.19,47.09 -26.62,65.51 -6.14,6.14 -10.23,10.24 -18.42,14.33l45.04 116.69 -65.51 0 -38.89 -102.36 -59.37 0 0 0zm0 -124.88l0 61.42 71.65 0c8.19,0 16.37,-2.05 22.52,-8.19 6.14,-6.14 8.19,-12.28 8.19,-22.52 0,-8.19 -2.04,-16.37 -8.19,-22.52 -6.15,-6.15 -12.28,-8.19 -22.52,-8.19l-71.65 0 0 0z"/>
     <polygon class="fil1" points="6302.23,5526.04 6302.23,5685.72 6240.82,5685.72 6240.82,5397.07 6322.71,5397.07 6384.12,5589.5 6445.54,5397.07 6527.42,5397.07 6527.42,5685.72 6466.01,5685.72 6466.01,5526.04 6414.83,5685.72 6353.41,5685.72 "/>
     <path class="fil1" d="M6971.67 5644.78l-16.37 40.94 -71.66 0 112.59 -288.65 61.42 -0.01 112.59 288.65 -71.65 0 -14.33 -40.94 -112.59 0zm90.07 -61.41l-34.8 -92.13 -34.8 92.13 69.6 0z"/>
     <polygon class="fil1" points="7661.56,5458.49 7661.56,5685.72 7600.15,5685.72 7600.15,5458.49 7528.5,5458.49 7528.5,5397.07 7733.22,5397.07 7733.22,5458.48 "/>
     <polygon class="fil1" points="8202.02,5624.31 8253.2,5624.31 8253.2,5685.72 8089.43,5685.72 8089.43,5624.31 8140.6,5624.31 8140.6,5460.54 8089.43,5460.54 8089.43,5399.12 8253.2,5399.12 8253.2,5460.54 8202.02,5460.54 "/>
     <polygon class="fil1" points="8670.82,5575.17 8670.82,5685.72 8609.41,5685.72 8609.41,5397.07 8670.82,5397.07 8670.82,5507.62 8773.19,5397.07 8855.07,5397.07 8722,5540.37 8855.07,5683.67 8773.19,5683.67 "/>
     <path class="fil1" d="M9299.31 5644.78l-16.38 40.94 -71.65 0 112.59 -288.65 61.42 -0.01 112.59 288.65 -71.65 0 -16.37 -40.94 -110.55 0zm92.13 -61.41l-34.8 -92.13 -34.8 92.13 69.6 0z"/>
    </g>
   </g>
  </g>
 </g>
</svg>
